<?xml version="1.0" encoding="utf-8"?>
<!-- Generator: Adobe Illustrator 20.0.0, SVG Export Plug-In . SVG Version: 6.00 Build 0)  -->
<svg version="1.1" id="Layer_1" xmlns="http://www.w3.org/2000/svg" xmlns:xlink="http://www.w3.org/1999/xlink" x="0px" y="0px"
	 viewBox="0 0 192 192" style="enable-background:new 0 0 192 192;" xml:space="preserve">
<style type="text/css">
	.st0{fill:none;stroke:#F69892;stroke-width:2.8346;stroke-miterlimit:10;}
</style>
<g>
	<path class="st0" d="M37.6,172.2c-1.9-2.1-2.9-4.6-2.9-7.5V24.5c0-2.9,1-5.5,2.9-7.6c1.9-2.2,4.2-3.2,7-3.2h43
		c16.1,0,30,3.8,41.7,11.5c11,7.7,19.4,17.7,25.2,29.9c5.8,12.2,8.8,25.4,8.8,39.4c0,13.7-2.9,26.6-8.6,38.8
		c-5.8,12.9-14.5,23.2-26.1,30.7c-11.5,7.5-25.2,11.3-41.1,11.3h-43C41.9,175.3,39.5,174.3,37.6,172.2z M116,147.4
		c8.8-5.1,15.6-12.2,20.4-21.2c4.8-9.1,7.2-19.6,7.2-31.6c0-12-2.4-22.6-7.3-31.9c-4.8-9.2-11.7-16.4-20.5-21.4
		c-8.8-5-19-7.5-30.6-7.5h-28c-1.7,0-2.6,0.9-2.6,2.8v115.9c0,1.8,0.9,2.8,2.6,2.8h28C96.9,155.2,107.2,152.6,116,147.4z"/>
</g>
</svg>
