<?xml version="1.0" encoding="utf-8"?>
<!-- Generator: Adobe Illustrator 20.0.0, SVG Export Plug-In . SVG Version: 6.00 Build 0)  -->
<svg version="1.1" id="Layer_1" xmlns="http://www.w3.org/2000/svg" xmlns:xlink="http://www.w3.org/1999/xlink" x="0px" y="0px"
	 viewBox="0 0 512 512" style="enable-background:new 0 0 512 512;" xml:space="preserve">
<style type="text/css">
	.st0{fill:none;stroke:#F69892;stroke-width:6.8942;stroke-miterlimit:10;}
</style>
<g>
	<path class="st0" d="M113.8,445c-4.7-5.1-7-11.1-7-18.3V85.8c0-7.1,2.3-13.3,7-18.5c4.7-5.2,10.3-7.9,16.9-7.9h104.6
		c39.2,0,73,9.4,101.4,28.1c26.7,18.7,47.2,43,61.4,72.7c14.2,29.8,21.3,61.7,21.3,95.7c0,33.3-6.9,64.8-20.8,94.3
		c-14.2,31.4-35.4,56.4-63.5,74.7c-28.1,18.3-61.4,27.5-99.9,27.5H130.7C124.1,452.5,118.5,450,113.8,445z M304.5,384.6
		c21.5-12.4,38.1-29.6,49.7-51.7c11.6-22.1,17.4-47.7,17.4-76.9c0-29.2-5.9-55-17.7-77.5c-11.8-22.5-28.4-39.8-49.9-51.9
		c-21.5-12.2-46.3-18.3-74.4-18.3h-68.1c-4.2,0-6.2,2.2-6.2,6.7V397c0,4.5,2.1,6.7,6.2,6.7h68.1C258,403.7,282.9,397.3,304.5,384.6z
		"/>
</g>
</svg>
