<?xml version="1.0" encoding="utf-8"?>
<!-- Generator: Adobe Illustrator 20.0.0, SVG Export Plug-In . SVG Version: 6.00 Build 0)  -->
<svg version="1.1" id="Layer_1" xmlns="http://www.w3.org/2000/svg" xmlns:xlink="http://www.w3.org/1999/xlink" x="0px" y="0px"
	 viewBox="0 0 130.4 130.4" style="enable-background:new 0 0 130.4 130.4;" xml:space="preserve">
<style type="text/css">
	.st0{fill:#F9B0A9;}
	.st1{fill:#FFFFFF;}
</style>
<circle class="st0" cx="65.2" cy="65.2" r="65.2"/>
<g>
	<path class="st1" d="M89.4,21.7c0.6,0.5,1.2,1,1.7,1.5c4.6,4.6,9.3,9.3,13.9,13.9c0.7,0.7,1,1.5,1,2.5c0,21,0,42.1,0,63.1
		c0,3.8-2,5.8-5.8,5.8c-20.3,0-40.6,0-60.9,0c-3.8,0-5.8-2-5.8-5.8c0-4.5,0-8.9,0-13.4c0-1.3,0.7-2.1,1.7-2.1c1,0,1.7,0.8,1.7,2
		c0,3,0,5.9,0,8.9c0,1.6,0,3.2,0,4.7c0,1.7,0.6,2.3,2.3,2.3c15.1,0,30.1,0,45.2,0c5.4,0,10.7,0,16.1,0c1.6,0,2.2-0.6,2.2-2.2
		c0-20.5,0-41.1,0-61.6c0-0.2,0-0.4,0-0.8c-0.4,0-0.6,0-0.9,0c-3,0-6,0-9,0c-3.4,0-5.5-2.1-5.5-5.5c0-3,0-5.9,0-8.9c0-0.3,0-0.6,0-1
		c-0.4,0-0.7,0-1,0c-15.7,0-31.3,0-47,0c-1.9,0-2.4,0.5-2.4,2.4c0,0.5,0,1,0,1.4c1.4-0.1,2.8-0.3,4.2-0.4c1.6-0.1,2.3,0.5,2.3,2.1
		c0,6.6,0,13.2,0,19.8c0,1.5-0.6,2.1-2.1,2.1c-6.6,0-13.2,0-19.8,0c-1,0-1.7-0.4-2.1-1.2c0-0.8,0-1.6,0-2.4c0.1-0.2,0.1-0.4,0.2-0.6
		c1.1-8.1,5.3-14,12.6-17.7c1.2-0.6,1.6-1.2,1.6-2.6c-0.1-1.2,0.1-2.4,0.5-3.5c0.6-1.7,2.1-2.5,3.7-3C54.9,21.7,72.2,21.7,89.4,21.7
		z M22.8,49.1c5.7,0,11.4,0,17,0c0-5.7,0-11.4,0-17.1C30.3,32.7,23.1,41,22.8,49.1z M100,37.1c-3.1-3.1-6.2-6.2-9.3-9.3
		c0,2.6,0,5.2,0,7.9c0,0.9,0.7,1.5,1.6,1.5C94.8,37.1,97.4,37.1,100,37.1z"/>
	<path class="st1" d="M46,55.2c0-0.4,0-0.7,0-1c0-5.8,0-11.6,0-17.4c0-1.8,0.6-2.3,2.3-2.3c10.4,0.3,19.4,7.9,21.3,18.1
		C72,64.7,64,76.5,52,78.9c-12.1,2.3-23.8-5.5-26.2-17.6c-0.3-1.3-0.3-2.6-0.4-4c-0.1-1.5,0.6-2.1,2.1-2.1c5.8,0,11.6,0,17.5,0
		C45.2,55.2,45.5,55.2,46,55.2z M62.2,44.8c-0.2,0.2-0.4,0.4-0.7,0.6c-4.1,4.1-8.1,8.1-12.2,12.2c-0.7,0.7-1.5,1-2.5,1
		c-5.7,0-11.4,0-17.1,0c-0.3,0-0.7,0-1,0c0.7,8.3,7,15.3,15.2,16.9c8.2,1.6,16.7-2.4,20.5-9.7C68.5,58,66.5,49.5,62.2,44.8z
		 M49.5,38c0,4.9,0,9.8,0,14.4c3.4-3.4,6.8-6.8,10.2-10.2C56.8,39.8,53.3,38.4,49.5,38z"/>
	<path class="st1" d="M63.5,78.6c3.2,0.1,5.6,3.1,4.8,6.2c-0.1,0.5-0.1,0.8,0.3,1.2c1.9,1.8,3.7,3.7,5.5,5.5
		c0.3,0.4,0.6,0.4,1.1,0.3c1-0.4,2.1-0.4,3.1,0c0.5,0.2,0.8,0.1,1.1-0.3c2.9-2.9,5.9-5.9,8.8-8.8c0.3-0.3,0.4-0.6,0.3-1.1
		c-0.8-2.8,0.8-5.5,3.7-6.3c2.6-0.7,5.4,0.9,6.1,3.6c0.7,2.7-0.8,5.5-3.6,6.2c-1,0.2-2,0-3.1-0.2c-0.5-0.1-0.7-0.1-1.1,0.2
		c-2.9,2.9-5.8,5.8-8.7,8.7c-0.3,0.3-0.4,0.6-0.3,1.1c0.7,2.1-0.1,4.4-1.9,5.7c-1.7,1.2-4.1,1.2-5.9,0c-1.8-1.3-2.6-3.6-1.9-5.6
		c0.2-0.5,0.1-0.9-0.3-1.2c-1.8-1.7-3.5-3.5-5.3-5.3c-0.4-0.4-0.7-0.4-1.2-0.2c-1.1,0.5-2.3,0.5-3.5,0.1c-0.5-0.2-0.8-0.1-1.1,0.2
		c-1.7,1.8-3.5,3.5-5.3,5.3c-0.3,0.3-0.4,0.6-0.2,1c0.8,2.3-0.1,4.8-2.1,6c-2,1.2-4.6,0.9-6.2-0.8c-1.7-1.7-1.9-4.2-0.7-6.2
		c1.2-2,3.6-2.9,5.9-2.1c0.4,0.1,0.7,0.1,1-0.2c1.8-1.8,3.5-3.6,5.3-5.3c0.4-0.4,0.4-0.6,0.2-1.1C57.6,81.8,60.1,78.5,63.5,78.6z
		 M76.8,94.9c-0.9,0-1.7,0.7-1.7,1.6c0,0.9,0.7,1.7,1.6,1.7c0.9,0,1.7-0.8,1.7-1.7C78.5,95.7,77.7,94.9,76.8,94.9z M50.4,98.3
		c0.9,0,1.7-0.8,1.7-1.7c0-0.9-0.8-1.7-1.7-1.7c-0.9,0-1.7,0.8-1.7,1.7C48.7,97.5,49.5,98.3,50.4,98.3z M93.5,81.9
		c0.9,0,1.7-0.7,1.7-1.6c0-0.9-0.7-1.7-1.6-1.7c-0.9,0-1.7,0.7-1.7,1.6C91.8,81.1,92.5,81.9,93.5,81.9z M65.1,83.7
		c0-0.9-0.7-1.7-1.6-1.7c-0.9,0-1.7,0.7-1.7,1.6c0,0.9,0.7,1.7,1.6,1.7C64.3,85.3,65.1,84.6,65.1,83.7z"/>
	<path class="st1" d="M86.4,48.6c-3.3,0-6.7,0-10,0c-1.1,0-1.8-0.5-2-1.4c-0.2-0.8,0.2-1.6,1-1.9c0.3-0.1,0.7-0.1,1.1-0.1
		c6.6,0,13.2,0,19.7,0c1.2,0,1.9,0.4,2.1,1.2c0.3,1.2-0.5,2.2-1.9,2.2c-2.4,0-4.7,0-7.1,0C88.4,48.6,87.4,48.6,86.4,48.6z"/>
	<path class="st1" d="M86.3,53.4c3.4,0,6.7,0,10.1,0c1,0,1.7,0.4,1.9,1.2c0.3,0.9-0.2,1.9-1.2,2.1c-0.3,0.1-0.6,0.1-0.9,0.1
		c-6.6,0-13.2,0-19.7,0c-0.8,0-1.5-0.1-1.9-0.9c-0.6-1.2,0.2-2.4,1.7-2.5c2.5,0,5,0,7.5,0C84.6,53.4,85.5,53.4,86.3,53.4z"/>
	<path class="st1" d="M80.6,61.5c1.4,0,2.8,0,4.1,0c1.2,0,1.9,0.7,2,1.7c0,1-0.8,1.7-2,1.7c-2.8,0-5.6,0-8.4,0c-1.2,0-1.9-0.7-2-1.7
		c0-1,0.8-1.7,2-1.7C77.8,61.5,79.2,61.5,80.6,61.5z"/>
	<path class="st1" d="M76.8,94.9c0.9,0,1.7,0.8,1.7,1.7c0,0.9-0.8,1.7-1.7,1.7c-0.9,0-1.6-0.8-1.6-1.7
		C75.2,95.6,75.9,94.9,76.8,94.9z"/>
	<path class="st1" d="M50.4,98.3c-0.9,0-1.7-0.8-1.7-1.7c0-0.9,0.8-1.7,1.7-1.7c0.9,0,1.7,0.8,1.7,1.7
		C52.1,97.4,51.3,98.3,50.4,98.3z"/>
	<path class="st1" d="M93.5,81.9c-0.9,0-1.7-0.8-1.7-1.7c0-0.9,0.8-1.6,1.7-1.6c0.9,0,1.7,0.8,1.6,1.7
		C95.1,81.2,94.4,81.9,93.5,81.9z"/>
	<path class="st1" d="M65.1,83.7c0,0.9-0.8,1.7-1.7,1.6c-0.9,0-1.7-0.8-1.6-1.7c0-0.9,0.8-1.6,1.7-1.6C64.4,82,65.1,82.8,65.1,83.7z
		"/>
</g>
</svg>
