<?xml version="1.0" encoding="utf-8"?>
<!-- Generator: Adobe Illustrator 20.0.0, SVG Export Plug-In . SVG Version: 6.00 Build 0)  -->
<svg version="1.1" id="Layer_1" xmlns="http://www.w3.org/2000/svg" xmlns:xlink="http://www.w3.org/1999/xlink" x="0px" y="0px"
	 viewBox="0 0 130.4 130.4" style="enable-background:new 0 0 130.4 130.4;" xml:space="preserve">
<style type="text/css">
	.st0{fill:#F9B0A9;}
	.st1{display:none;}
	.st2{display:inline;fill:#FFFFFF;}
	.st3{fill:#FFFFFF;}
</style>
<circle class="st0" cx="65.2" cy="65.2" r="65.2"/>
<g class="st1">
	<path class="st2" d="M83.1,29.5c0.5,0.4,1,0.8,1.4,1.2c3.8,3.8,7.7,7.7,11.4,11.4c0.6,0.6,0.8,1.2,0.8,2.1c0,17.3,0,34.7,0,52
		c0,3.1-1.6,4.8-4.8,4.8c-16.7,0-33.4,0-50.1,0c-3.1,0-4.8-1.6-4.8-4.8c0-3.7,0-7.3,0-11c0-1.1,0.6-1.7,1.4-1.7s1.4,0.7,1.4,1.6
		c0,2.5,0,4.9,0,7.3c0,1.3,0,2.6,0,3.9c0,1.4,0.5,1.9,1.9,1.9c12.4,0,24.8,0,37.2,0c4.4,0,8.8,0,13.3,0c1.3,0,1.8-0.5,1.8-1.8
		c0-16.9,0-33.8,0-50.7c0-0.2,0-0.3,0-0.7c-0.3,0-0.5,0-0.7,0c-2.5,0-4.9,0-7.4,0c-2.8,0-4.5-1.7-4.5-4.5c0-2.5,0-4.9,0-7.3
		c0-0.2,0-0.5,0-0.8c-0.3,0-0.6,0-0.8,0c-12.9,0-25.8,0-38.7,0c-1.6,0-2,0.4-2,2c0,0.4,0,0.8,0,1.2c1.2-0.1,2.3-0.2,3.5-0.3
		c1.3-0.1,1.9,0.4,1.9,1.7c0,5.4,0,10.9,0,16.3c0,1.2-0.5,1.7-1.7,1.7c-5.4,0-10.9,0-16.3,0c-0.8,0-1.4-0.3-1.7-1c0-0.7,0-1.3,0-2
		c0.1-0.2,0.1-0.3,0.2-0.5C26.6,44.8,30,39.9,36,36.9c1-0.5,1.3-1,1.3-2.1c-0.1-1,0.1-2,0.4-2.9c0.5-1.4,1.7-2.1,3-2.5
		C54.7,29.5,69,29.5,83.1,29.5z M28.3,52.1c4.7,0,9.4,0,14,0c0-4.7,0-9.4,0-14.1C34.5,38.6,28.5,45.4,28.3,52.1z M91.9,42.2
		c-2.6-2.6-5.1-5.1-7.7-7.7c0,2.1,0,4.3,0,6.5c0,0.7,0.6,1.2,1.3,1.2C87.6,42.2,89.7,42.2,91.9,42.2z"/>
	<path class="st2" d="M47.4,57.1c0-0.3,0-0.6,0-0.8c0-4.8,0-9.6,0-14.3c0-1.5,0.5-1.9,1.9-1.9c8.6,0.2,16,6.5,17.5,14.9
		c2,10-4.6,19.7-14.5,21.7c-10,1.9-19.6-4.5-21.6-14.5c-0.2-1.1-0.2-2.1-0.3-3.3c-0.1-1.2,0.5-1.7,1.7-1.7c4.8,0,9.6,0,14.4,0
		C46.7,57.1,47,57.1,47.4,57.1z M60.7,48.6c-0.2,0.2-0.3,0.3-0.6,0.5c-3.4,3.4-6.7,6.7-10,10c-0.6,0.6-1.2,0.8-2.1,0.8
		c-4.7,0-9.4,0-14.1,0c-0.2,0-0.6,0-0.8,0c0.6,6.8,5.8,12.6,12.5,13.9s13.7-2,16.9-8C65.9,59.4,64.3,52.4,60.7,48.6z M50.3,43
		c0,4,0,8.1,0,11.9c2.8-2.8,5.6-5.6,8.4-8.4C56.3,44.5,53.4,43.3,50.3,43z"/>
	<path class="st2" d="M61.8,76.4c2.6,0.1,4.6,2.6,4,5.1c-0.1,0.4-0.1,0.7,0.2,1c1.6,1.5,3,3,4.5,4.5c0.2,0.3,0.5,0.3,0.9,0.2
		c0.8-0.3,1.7-0.3,2.6,0c0.4,0.2,0.7,0.1,0.9-0.2c2.4-2.4,4.9-4.9,7.2-7.2c0.2-0.2,0.3-0.5,0.2-0.9c-0.7-2.3,0.7-4.5,3-5.2
		c2.1-0.6,4.4,0.7,5,3s-0.7,4.5-3,5.1c-0.8,0.2-1.6,0-2.6-0.2c-0.4-0.1-0.6-0.1-0.9,0.2c-2.4,2.4-4.8,4.8-7.2,7.2
		c-0.2,0.2-0.3,0.5-0.2,0.9c0.6,1.7-0.1,3.6-1.6,4.7c-1.4,1-3.4,1-4.9,0c-1.5-1.1-2.1-3-1.6-4.6c0.2-0.4,0.1-0.7-0.2-1
		c-1.5-1.4-2.9-2.9-4.4-4.4c-0.3-0.3-0.6-0.3-1-0.2c-0.9,0.4-1.9,0.4-2.9,0.1c-0.4-0.2-0.7-0.1-0.9,0.2c-1.4,1.5-2.9,2.9-4.4,4.4
		c-0.2,0.2-0.3,0.5-0.2,0.8c0.7,1.9-0.1,4-1.7,4.9s-3.8,0.7-5.1-0.7c-1.4-1.4-1.6-3.5-0.6-5.1c1-1.6,3-2.4,4.9-1.7
		c0.3,0.1,0.6,0.1,0.8-0.2c1.5-1.5,2.9-3,4.4-4.4c0.3-0.3,0.3-0.5,0.2-0.9C56.9,79,59,76.3,61.8,76.4z M72.8,89.8
		c-0.7,0-1.4,0.6-1.4,1.3c0,0.7,0.6,1.4,1.3,1.4c0.7,0,1.4-0.7,1.4-1.4C74.2,90.5,73.5,89.8,72.8,89.8z M51,92.6
		c0.7,0,1.4-0.7,1.4-1.4c0-0.7-0.7-1.4-1.4-1.4s-1.4,0.7-1.4,1.4S50.3,92.6,51,92.6z M86.5,79.1c0.7,0,1.4-0.6,1.4-1.3
		s-0.6-1.4-1.3-1.4c-0.7,0-1.4,0.6-1.4,1.3C85.1,78.5,85.7,79.1,86.5,79.1z M63.1,80.6c0-0.7-0.6-1.4-1.3-1.4s-1.4,0.6-1.4,1.3
		c0,0.7,0.6,1.4,1.3,1.4C62.5,81.9,63.1,81.3,63.1,80.6z"/>
	<path class="st2" d="M80.7,51.7c-2.7,0-5.5,0-8.2,0c-0.9,0-1.5-0.4-1.6-1.2c-0.2-0.7,0.2-1.3,0.8-1.6c0.2-0.1,0.6-0.1,0.9-0.1
		c5.4,0,10.9,0,16.2,0c1,0,1.6,0.3,1.7,1c0.2,1-0.4,1.8-1.6,1.8c-2,0-3.9,0-5.8,0C82.3,51.7,81.5,51.7,80.7,51.7z"/>
	<path class="st2" d="M80.6,55.6c2.8,0,5.5,0,8.3,0c0.8,0,1.4,0.3,1.6,1c0.2,0.7-0.2,1.6-1,1.7c-0.2,0.1-0.5,0.1-0.7,0.1
		c-5.4,0-10.9,0-16.2,0c-0.7,0-1.2-0.1-1.6-0.7c-0.5-1,0.2-2,1.4-2.1c2.1,0,4.1,0,6.2,0C79.2,55.6,79.9,55.6,80.6,55.6z"/>
	<path class="st2" d="M75.9,62.3c1.2,0,2.3,0,3.4,0c1,0,1.6,0.6,1.6,1.4c0,0.8-0.7,1.4-1.6,1.4c-2.3,0-4.6,0-6.9,0
		c-1,0-1.6-0.6-1.6-1.4c0-0.8,0.7-1.4,1.6-1.4C73.6,62.3,74.7,62.3,75.9,62.3z"/>
	<path class="st2" d="M72.8,89.8c0.7,0,1.4,0.7,1.4,1.4c0,0.7-0.7,1.4-1.4,1.4c-0.7,0-1.3-0.7-1.3-1.4C71.4,90.4,72,89.8,72.8,89.8z
		"/>
	<path class="st2" d="M51,92.6c-0.7,0-1.4-0.7-1.4-1.4c0-0.7,0.7-1.4,1.4-1.4s1.4,0.7,1.4,1.4C52.4,91.9,51.8,92.6,51,92.6z"/>
	<path class="st2" d="M86.5,79.1c-0.7,0-1.4-0.7-1.4-1.4c0-0.7,0.7-1.3,1.4-1.3c0.7,0,1.4,0.7,1.3,1.4
		C87.8,78.5,87.2,79.1,86.5,79.1z"/>
	<path class="st2" d="M63.1,80.6c0,0.7-0.7,1.4-1.4,1.3c-0.7,0-1.4-0.7-1.3-1.4c0-0.7,0.7-1.3,1.4-1.3S63.1,79.9,63.1,80.6z"/>
</g>
<g class="st1">
	<path class="st2" d="M74.1,41.6c0,3.7-3.1,6.8-6.8,6.8c-3.8,0-6.8-3.1-6.8-6.9c0-3.7,3.1-6.8,6.8-6.8
		C71.1,34.8,74.1,37.9,74.1,41.6z M71.4,41.6c0-2.2-1.8-4.1-4.1-4.1c-2.2,0-4.1,1.8-4.1,4c0,2.3,1.8,4.1,4.1,4.1
		C69.5,45.7,71.4,43.9,71.4,41.6z"/>
	<path class="st2" d="M32.4,90.7c0-7,0-14.1,0-21.1c0.3-0.5,0.7-1,1.4-1c0.8,0,1.3,0.6,1.3,1.6c0,4.1,0,8.3,0,12.4
		c0,0.2,0,0.5,0,0.8c3.7-2.7,7.3-2.7,10.9,0c0-0.3,0-0.6,0-0.8c0-7.6,0-15.3,0-22.9c0-2.8,0-5.6,0-8.4c0-3-2.5-5.3-5.4-5.4
		c-3,0-5.4,2.4-5.5,5.3c0,2.5,0,5,0,7.6c0,0.8-0.4,1.3-1,1.5c-0.6,0.2-1.2-0.1-1.6-0.8c0-0.1-0.1-0.1-0.1-0.2c0-3,0-6.1,0-9.1
		c0-0.1,0.1-0.2,0.1-0.3c0.8-4.3,4.6-7.2,8.8-6.8c4.3,0.4,7.4,3.9,7.4,8.3c0,0.8,0,1.7,0,2.5c3.3,0,6.5,0,9.8,0
		c-0.2-0.3-0.3-0.6-0.5-0.9c-1.1-2.1-2.2-4.2-3.1-6.3c-0.7-1.7-1.3-3.4-1.3-5.3c0.2-5.7,2.8-9.9,8-12.4c1.3-0.6,2.8-0.9,4.3-1.3
		c0.9,0,1.8,0,2.7,0c1.3,0.4,2.7,0.6,3.9,1.1c6.1,2.4,10.2,9.9,7.5,16.7c-1.1,2.6-2.4,5.2-3.7,7.7c-0.1,0.2-0.2,0.4-0.4,0.7
		c3.3,0,6.5,0,9.8,0c0-0.4,0-0.7,0-1.1c0-1.4,0-2.9,0.4-4.2c1.3-3.8,5.1-6.1,9.2-5.4c3.9,0.6,6.7,4.1,6.8,8.1c0,12.7,0,25.4,0,38.1
		c0,0.3,0,0.7-0.1,1c-0.6,4.3-4,7.2-8.4,7.2c-14.3,0-28.6,0-42.8,0c-3.4,0-6.7,0.1-10.1,0c-3.1-0.1-5.7-1.4-7.3-4.1
		C33,92.8,32.7,91.7,32.4,90.7z M99.5,83.4c0-0.3,0-0.6,0-0.8c0-10.2,0-20.4,0-30.6c0-0.3,0-0.6,0-0.9C99.3,48.3,97,46,94.2,46
		c-3.1-0.1-5.6,2.4-5.6,5.6c0,10.5,0,20.9,0,31.4c0,0.1,0,0.3,0,0.5C92.2,80.8,95.8,80.8,99.5,83.4z M48.7,56.9c0,1.8,0,3.7,0,5.5
		c0,0.5,0.1,0.8,0.5,1.1c5.3,5,10.5,10,15.8,15c1.3,1.2,1.3,1.8,0,3c-4.5,4.3-9.1,8.7-13.6,13c-0.1,0.1-0.3,0.3-0.5,0.5
		c2.4,0,4.7,0,7,0c0.5,0,0.8-0.1,1.1-0.5c5-5.1,10.1-10.1,15.1-15.2c0.5-0.5,1.1-0.8,1.9-0.8c3,0,6,0,9.1,0c0.2,0,0.5,0,0.7,0
		c0-1.9,0-3.6,0-5.5c-0.3,0-0.5,0-0.8,0c-5.5,0-11,0-16.6,0c-0.8,0-1.4-0.3-2-0.8c-5.2-5-10.4-9.9-15.6-14.9
		C50.2,56.9,49.6,56.8,48.7,56.9z M62.4,95.1c0.3,0,0.4,0,0.5,0c10.4,0,20.7,0,31.1,0c3,0,5.4-2.4,5.5-5.4c0-3-2.3-5.4-5.2-5.5
		c-3-0.1-5.5,2.2-5.7,5.3c-0.1,1-0.6,1.6-1.4,1.6c-0.8,0-1.3-0.6-1.3-1.6c0-1.7,0-3.5,0-5.2c0-0.9,0-1.8,0-2.8c-0.3,0-0.5,0-0.7,0
		c-2.8,0-5.6,0-8.5,0c-0.4,0-0.8,0.2-1,0.4c-2.5,2.5-5.1,5-7.6,7.6C66.2,91.3,64.4,93.1,62.4,95.1z M67.1,62.4c0.1,0,0.2,0,0.3,0
		c1.2-1.7,2.4-3.4,3.5-5.2c2.4-3.7,4.7-7.4,6.3-11.4c0.5-1.3,1-2.8,1-4.2c0.1-6.7-6.2-11.9-12.8-10.7c-6.6,1.2-10.8,8.3-8.2,14.2
		c1,2.3,2.1,4.7,3.3,6.8C62.6,55.5,64.9,58.9,67.1,62.4z M48.7,66.9c0,0.4,0,0.7,0,0.9c0,7.1,0,14.1,0,21.2c0,0.2,0,0.4,0,0.6
		c0,0.8-0.6,1.4-1.3,1.4c-0.7,0-1.3-0.5-1.4-1.3c0-0.4-0.1-0.8-0.1-1.2c-0.6-2.9-3.5-4.8-6.4-4.2c-2.9,0.6-4.8,3.4-4.2,6.3
		c0.5,2.5,2.8,4.4,5.5,4.5c1.8,0,3.6,0,5.5,0c0.5,0,0.8-0.1,1.1-0.5c3.8-3.6,7.5-7.2,11.3-10.8c1.3-1.2,2.6-2.5,4-3.8
		C58,75.7,53.4,71.4,48.7,66.9z M54.1,56.9c0.2,0.2,0.3,0.4,0.4,0.5c4.5,4.3,8.9,8.5,13.4,12.8c0.2,0.2,0.6,0.4,1,0.4
		c5.4,0,10.8,0,16.2,0c0.2,0,0.4,0,0.6,0c0-4.6,0-9.1,0-13.6c-3.6,0-7.2,0-10.7,0c-0.1,0-0.3,0-0.4,0c-0.2,0.1-0.5,0.3-0.6,0.5
		c-1.8,2.6-3.5,5.2-5.3,7.8c-0.9,1.4-1.9,1.4-2.8,0c-1.8-2.6-3.5-5.2-5.3-7.8c-0.1-0.2-0.4-0.5-0.6-0.5
		C58.1,56.9,56.2,56.9,54.1,56.9z"/>
</g>
<g class="st1">
	<path class="st2" d="M75.5,27.6c1.2,0.4,2.5,0.7,3.6,1.3c1.8,0.9,3,2.4,3.9,4.1c0.2,0.4,0.5,0.7,1,0.8c3.4,1.1,5.7,4.4,5.5,8
		c0,0.5,0.1,0.8,0.6,1c4,2.4,5.8,7.2,4.3,11.6c-0.1,0.4-0.1,0.6,0.2,0.8c3.3,3.2,4,7.8,1.7,11.9c-0.3,0.6-0.3,0.9,0,1.5
		c2.1,3.4,1.6,7.9-1.1,10.9c-0.3,0.4-0.4,0.7-0.4,1.2c0.6,5.1-3.7,10.3-8.8,10.5c-0.5,0-0.8,0.2-1,0.6c-2.6,3.9-7,5.6-11.6,4.5
		c-2.7-0.7-4.7-2.3-6.2-4.5c-0.2-0.2-0.3-0.5-0.5-0.7c0,0-0.1,0-0.1-0.1c-0.4,0.6-0.8,1.2-1.2,1.7c-4.5,5.6-13,5.2-17-0.8
		c-0.3-0.4-0.6-0.6-1.1-0.6c-4.2-0.2-8.2-3.9-8.7-8.2c-0.1-0.9,0-1.7-0.1-2.6c0-0.2-0.1-0.5-0.2-0.6c-3-3.4-3.4-7.5-1.1-11.3
		c0.3-0.4,0.1-0.7-0.1-1.1c-1.6-2.9-2-5.9-0.6-8.9c0.5-1.1,1.4-2.1,2.2-3.1c0.3-0.3,0.4-0.5,0.2-0.9c-1.5-4.2,0.3-9.2,4.2-11.4
		c0.5-0.3,0.7-0.6,0.7-1.2c-0.1-3.6,2.2-6.8,5.6-7.9c0.3-0.1,0.6-0.3,0.7-0.6c1.6-3.1,4-5,7.5-5.5c0,0,0.1,0,0.1-0.1
		c0.6,0,1.2,0,1.8,0c0.1,0,0.3,0.1,0.4,0.1c2.3,0.4,4.2,1.5,5.7,3.3c0.4,0.4,0.7,0.9,0.9,1.2c0.9-0.9,1.8-1.9,2.8-2.8
		c1.3-1.1,2.9-1.6,4.5-1.9C74.3,27.6,74.9,27.6,75.5,27.6z M46.4,41.5c0.2,0,0.3,0,0.4,0c5.1-0.7,10.2,3.6,10.4,9.5
		c0,0.9-0.5,1.6-1.3,1.6c-0.8,0-1.3-0.6-1.4-1.5c-0.1-0.8-0.2-1.6-0.5-2.3c-0.9-2.7-3.7-4.7-6.3-4.7c-4.7,0.1-8.1,5.6-6,9.9
		c0.6,1.4,0.5,1.6-0.6,2.6c-0.8,0.7-1.5,1.4-2,2.3c-2.3,4.4,0.8,9.8,5.8,10.1c0.9,0.1,1.5,0.6,1.5,1.4c0,0.8-0.7,1.4-1.6,1.2
		c-1.1-0.1-2.2-0.4-3.2-0.7c-0.8-0.3-1.5-0.8-2.3-1.3c-0.1,0.3-0.3,0.6-0.4,0.9c-1.1,2.6-0.5,5.4,1.6,7.4c0.6,0.5,0.8,1.1,0.7,1.9
		c-0.1,0.9-0.2,1.8,0,2.6c0.7,3.8,4.4,6.4,7.3,5.8c0.3-0.1,0.8,0.1,1,0.3c0.3,0.3,0.5,0.7,0.7,1.1c1.2,1.9,2.8,3.2,5,3.8
		c5,1.3,9.7-2.6,10-7.7c0.3-4.6-3.2-8.4-7.8-8.6c-1-0.1-1.7-0.6-1.6-1.4c0-0.8,0.7-1.3,1.7-1.3c1.6,0.1,3.1,0.4,4.5,1.2
		c1.1,0.7,2.1,1.5,3.2,2.2c0,0,0-0.1,0-0.2c0-8.3,0-16.6,0-25c0-1.6-1-2.6-2.6-2.8c-0.2,0-0.3,0-0.5-0.1c-0.6-0.2-1-0.7-1-1.3
		c0-0.6,0.4-1.2,1.1-1.3c0.3-0.1,0.7,0,1.1,0c0.6,0.1,1.2,0.3,1.9,0.5c0-3.4,0-6.8,0-10.2c0-3-1.4-5.3-4-6.7
		c-2.7-1.5-6.7-0.3-8.1,2.5c0.2,0.1,0.5,0.1,0.7,0.2c1.4,0.4,2.6,1,3.6,2c0.6,0.5,0.6,1.3,0.1,1.9c-0.5,0.5-1.2,0.6-1.8,0.2
		c-0.3-0.2-0.5-0.4-0.7-0.6c-1.8-1.2-3.7-1.4-5.6-0.5C47.4,37.6,46.5,39.3,46.4,41.5z M93.8,69.8c-0.2,0.1-0.4,0.3-0.6,0.4
		c-1.4,1-3,1.6-4.8,1.7c-1,0-1.6-0.5-1.7-1.3c0-0.8,0.6-1.3,1.5-1.4c0.4,0,0.9-0.1,1.3-0.2c2.8-0.8,4.5-2.8,5-5.6
		c0.6-2.8-0.4-5.1-2.7-6.8c-1-0.7-1.2-1.2-0.7-2.2c1.4-2.8,0.9-5.3-0.9-7.7c-2.5-3.3-7.3-3.3-9.9-0.1c-1.1,1.4-1.7,2.9-1.8,4.7
		c0,0.9-0.6,1.5-1.4,1.4c-0.8,0-1.3-0.7-1.3-1.5c0-0.5,0.1-0.9,0.1-1.4c0.5-4,4-7.5,8-8.1c0.8-0.1,1.7,0,2.6,0
		c0.2-3.1-2.7-5.8-5.8-5.5c-1.3,0.1-2.4,0.7-3.4,1.6c-0.6,0.5-1.4,0.4-1.9-0.1c-0.5-0.6-0.4-1.4,0.2-1.9c0.4-0.3,0.8-0.7,1.2-0.9
		c1-0.5,2-0.9,3-1.4c-1-1.9-3.9-3.4-6.1-3c-3.3,0.6-5.9,3.6-5.9,7c0,3.4,0,6.8,0,10.2c0,0.1,0,0.2,0,0.3c0.4-0.2,0.8-0.3,1.2-0.4
		c0.4-0.1,0.8-0.2,1.2-0.2c0.9-0.1,1.6,0.5,1.6,1.2c0.1,0.7-0.5,1.3-1.4,1.4c-1.7,0.2-2.6,1.2-2.6,2.9c0,8.3,0,16.6,0,24.8
		c0,0.1,0,0.3,0.1,0.6c0.2-0.3,0.3-0.4,0.4-0.5c2-2,4.4-3,7.2-3.1c1,0,1.6,0.5,1.7,1.3c0,0.8-0.6,1.4-1.5,1.4
		c-5.7,0.3-9.3,5.7-7.3,11.1c1.6,4.5,6.3,6.6,10.6,4.8c1.8-0.7,3.1-2,4-3.8c0.3-0.7,0.8-1.1,1.6-1c3.9,0.6,8-3.7,7.2-8
		c-0.2-1,0-1.7,0.8-2.4C95.1,75.8,95.5,72.2,93.8,69.8z"/>
	<path class="st2" d="M54.2,60.7c-1-0.4-1.9-0.6-2.8-1.1c-3.1-1.7-4.8-4.3-5-7.8c-0.1-1.1,0.4-1.8,1.2-1.8c0.8-0.1,1.4,0.6,1.4,1.7
		c0.3,3.8,3.4,6.6,7.2,6.4c1.3-0.1,2.4-0.5,3.4-1.3c0.2-0.2,0.5-0.4,0.7-0.5c0.6-0.4,1.4-0.3,1.8,0.3c0.4,0.6,0.4,1.3-0.2,1.8
		c-1.1,1-2.4,1.8-3.9,2.1c-0.8,0.2-1.1,0.4-1.4,1.2c-0.8,2.6-3.5,4.5-6.2,4.5c-0.8,0-1.4-0.5-1.5-1.3c0-0.7,0.5-1.3,1.4-1.4
		c1.7-0.1,2.9-0.9,3.7-2.5C54.2,60.8,54.2,60.7,54.2,60.7z"/>
	<path class="st2" d="M57.3,89.4c-0.1,0.7-0.3,1.3-0.9,1.6c-0.5,0.2-1,0.2-1.4-0.2c-0.3-0.4-0.5-0.9-0.5-1.4c-0.2-3-2.4-5.8-5.2-6.5
		c-0.4-0.1-0.8-0.2-1.3-0.2c-1-0.1-1.7-0.6-1.6-1.4c0-0.8,0.7-1.3,1.8-1.3c3.5,0.1,7,2.7,8.3,6.2C56.9,87.2,57,88.3,57.3,89.4z"/>
	<path class="st2" d="M49.3,77.3c-1.2,0-1.8-1.1-1.2-2.1c1-1.8,2.5-3.2,4.3-4.3c1.8-1.1,3.9-1.7,6-1.7c1.1,0,1.9,1,1.4,1.9
		c-0.3,0.6-0.8,0.8-1.5,0.8c-2,0.1-3.8,0.6-5.3,1.9c-0.9,0.8-1.7,1.7-2.4,2.7C50.1,76.9,49.8,77.3,49.3,77.3z"/>
	<path class="st2" d="M61.2,40.1c0,0.7-0.6,1.3-1.4,1.3c-0.7,0-1.3-0.6-1.3-1.4c0-0.7,0.6-1.3,1.4-1.3
		C60.6,38.8,61.2,39.4,61.2,40.1z"/>
	<path class="st2" d="M78.9,60.6c0.6,1.6,1.8,2.5,3.4,2.8c0.2,0,0.3,0,0.5,0c0.8,0.1,1.3,0.7,1.3,1.4c0,0.7-0.7,1.3-1.5,1.3
		c-2.8,0-5.5-2-6.2-4.7c-0.2-0.6-0.4-0.9-1-1c-1.6-0.2-2.9-1-4.1-2c-0.7-0.6-0.8-1.3-0.3-2c0.5-0.6,1.2-0.7,1.9-0.2
		c1.1,0.9,2.3,1.5,3.8,1.6c3.7,0.5,7.3-2.5,7.5-6.3c0-0.1,0-0.2,0-0.3c0.1-0.9,0.7-1.5,1.4-1.4c0.8,0,1.3,0.7,1.3,1.5
		c0,3.8-2.7,7.5-6.4,8.7C80,60.3,79.5,60.5,78.9,60.6z"/>
	<path class="st2" d="M76,89.3c0.2-4.7,3.8-8.7,8.5-9.3c0.4,0,0.7-0.1,1.1,0c0.7,0.1,1.2,0.6,1.2,1.3c0,0.6-0.4,1.2-1.1,1.3
		c-0.3,0.1-0.7,0-1,0.1c-3.2,0.5-5.7,3.4-5.9,6.6c0,0,0,0.1,0,0.1c-0.1,1-0.6,1.7-1.4,1.6C76.5,91.1,76,90.4,76,89.3z"/>
	<path class="st2" d="M84.1,77.4c-0.8-0.1-1.1-0.6-1.4-1.1c-1-1.6-2.3-2.8-4-3.6c-1.2-0.6-2.5-0.8-3.8-0.9c-0.4,0-0.8-0.2-1.2-0.4
		c-0.4-0.3-0.5-0.9-0.3-1.4c0.2-0.6,0.7-0.9,1.4-0.9c2.2,0.1,4.3,0.6,6.2,1.8c1.7,1.1,3.1,2.5,4.1,4.2c0.3,0.5,0.4,1,0.1,1.5
		C84.9,77,84.5,77.2,84.1,77.4z"/>
	<path class="st2" d="M74.7,40.1c0,0.7-0.7,1.3-1.4,1.3c-0.7,0-1.3-0.7-1.3-1.4c0-0.7,0.7-1.3,1.4-1.3
		C74.1,38.8,74.7,39.4,74.7,40.1z"/>
</g>
<g class="st1">
	<path class="st2" d="M76.9,28.1c11.9,0,21.5,9.7,21.6,21.6c0,11.9-9.7,21.6-21.6,21.6c-11.9,0-21.6-9.7-21.5-21.6
		C55.4,37.7,65,28,76.9,28.1z M76.9,31.1c-10.2,0-18.5,8.2-18.6,18.4c-0.1,10.2,8.2,18.6,18.5,18.6c10.2,0,18.6-8.3,18.6-18.5
		C95.4,39.4,87.2,31.2,76.9,31.1z"/>
	<path class="st2" d="M75.4,53.7c-0.2-2.9,1-5,3.4-6.4c1.5-0.9,2.1-2.7,1.5-4.4c-0.6-1.6-2.2-2.6-3.9-2.4c-1.7,0.2-3,1.5-3.2,3.2
		c0,0.2,0,0.3,0,0.5c-0.1,1-0.8,1.6-1.7,1.5c-0.8-0.1-1.4-0.8-1.4-1.7c0.2-2.5,1.3-4.5,3.6-5.7c3.2-1.7,7.1-0.6,8.9,2.5
		c1.8,3.1,0.9,7.1-2.1,9c-1.6,1-2.3,2.2-2.1,4c0,0.5,0,0.9,0,1.4c-0.1,0.9-0.7,1.5-1.6,1.4c-0.8,0-1.4-0.6-1.4-1.5
		C75.4,54.6,75.4,54.1,75.4,53.7z"/>
	<path class="st2" d="M76.9,62.5c-0.8,0-1.5-0.7-1.5-1.5c0-0.8,0.6-1.5,1.5-1.5c0.9,0,1.6,0.7,1.5,1.5
		C78.4,61.8,77.7,62.5,76.9,62.5z"/>
	<path class="st2" d="M27.7,90c0.4-2.5,2-4.2,3.7-5.9c4.4-4.3,8.7-8.7,13.1-13c1.7-1.7,1.8-1.7,3.6-0.2c0.1-0.1,0.2-0.1,0.2-0.2
		c1.5-1.5,2.9-2.9,4.4-4.4c-0.1-0.2-0.2-0.4-0.3-0.6c-10.4-16.1-2.7-37.6,15.6-43.3c1.9-0.6,4-0.8,6-1.2c0.2,0,0.4-0.1,0.6-0.1
		c1.3,0,2.6,0,4,0c1.5,0.3,3.1,0.4,4.6,0.8c11.1,2.5,20,11.9,21.8,23.1c2.6,15.4-7.2,30-22.4,33.2c-7.8,1.6-15,0.2-21.7-4
		c-0.1-0.1-0.3-0.2-0.5-0.3c0,0-0.1,0-0.1,0c-1.6,1.6-3.1,3.1-4.7,4.7c0,0,0,0,0,0.1c1.3,1.5,1.3,1.9-0.1,3.3
		c-4.8,4.8-9.7,9.7-14.5,14.5c-3.2,3.2-7.8,3.3-11,0.4c-1.2-1.1-2-2.5-2.3-4.1c0-0.2-0.1-0.3-0.2-0.5C27.7,91.4,27.7,90.7,27.7,90z
		 M76.7,24c-14.2,0-25.8,11.5-25.9,25.7C50.8,64,62.4,75.7,76.6,75.7c14.2,0,25.8-11.5,25.9-25.8C102.6,35.7,91,24.1,76.7,24z
		 M46.3,73.5c-0.2,0.2-0.3,0.4-0.5,0.6c-4.4,4.4-8.8,8.8-13.2,13.2c-0.2,0.2-0.4,0.4-0.5,0.5c-1.8,2-1.6,4.9,0.3,6.7
		c1.9,1.7,4.7,1.6,6.6-0.3c4.6-4.6,9.2-9.2,13.8-13.8c0.1-0.1,0.2-0.2,0.2-0.3C50.7,78,48.5,75.8,46.3,73.5z M50.4,73.1
		c1,1,2.1,2.1,3,3.1c1.5-1.4,2.9-2.9,4.3-4.2c-1-1-2.1-2.1-3.1-3.1C53.3,70.2,51.8,71.6,50.4,73.1z"/>
</g>
<g>
	<path class="st3" d="M95.8,21.1c1.1,0.3,2.2,0.5,3.2,0.8c6.8,2.2,11.2,8.9,10.6,15.9c-0.6,7.4-6.1,13.2-13.4,14.2
		c-0.1,0-0.2,0-0.4,0.1c0,0.3,0,0.6,0,0.9c0,5.4,0,10.8,0,16.2c0,1.7-0.6,2.2-2.2,2.2c-2.6,0-5.2,0-7.8,0c-1.2,0-2-0.7-2-1.7
		c0-1,0.8-1.7,2-1.7c0.3,0,0.6,0,0.9,0c1.9,0,3.7,0,5.6,0c0-5.3,0-10.6,0-15.9c-0.8-0.2-1.7-0.3-2.5-0.6c-7.1-2-11.8-8.7-11.3-16
		c0.5-7.3,6.1-13.3,13.4-14.3c0.2,0,0.3-0.1,0.5-0.2C93.5,21.1,94.6,21.1,95.8,21.1z M94.1,24.5c-6.7,0-12.1,5.5-12.1,12.1
		c0,6.7,5.5,12.2,12.2,12.2c6.7,0,12.1-5.5,12.1-12.1C106.3,29.9,100.8,24.5,94.1,24.5z"/>
	<path class="st3" d="M40.2,21.1c1.3,0.3,2.6,0.6,3.9,1c3.1,1.1,5.6,3.1,7.4,5.8c0.8,1.2,0.7,2.2-0.2,2.8c-0.9,0.6-1.8,0.3-2.6-0.9
		c-3.1-4.2-7.2-6.1-12.3-5.1c-5.1,1-8.3,4.2-9.6,9.2c-1.4,5.7,1.6,11.5,6.9,13.8c5.3,2.4,11.5,0.6,14.9-4.2c0.1-0.1,0.2-0.3,0.3-0.4
		c0.7-0.9,1.6-1.1,2.4-0.6c0.8,0.5,1.1,1.6,0.4,2.5c-1.1,1.4-2.2,2.8-3.6,3.9c-2.1,1.8-4.6,2.7-7.3,3.1c-0.1,0-0.3,0.1-0.4,0.1
		c0,5.3,0,10.6,0,16c0.7,0,1.3,0,1.9,0c1.6,0,3.3,0,4.9,0c1,0,1.7,0.7,1.7,1.6c0,0.9-0.7,1.7-1.6,1.7c-2.9,0-5.9,0-8.8,0
		c-1,0-1.6-0.8-1.6-1.9c0-2.4,0-4.7,0-7.1c0-3.1,0-6.2,0-9.4c0-0.3,0-0.6,0-0.7c-1.7-0.6-3.4-0.9-4.9-1.6c-5-2.4-7.9-6.4-8.8-11.9
		c0-0.2-0.1-0.3-0.2-0.5c0-1.1,0-2.3,0-3.4c0.1-0.2,0.1-0.3,0.2-0.5c1.1-6.5,4.8-10.8,11.1-12.8c0.8-0.3,1.7-0.4,2.6-0.6
		C38,21.1,39.1,21.1,40.2,21.1z"/>
	<path class="st3" d="M74.9,78.5c1.5,0.1,2.9,0.1,4.3,0.2c7.7,0.8,14.4,7.4,15,15.1c0.3,4.1,0.2,8.2,0.2,12.2c0,0.9-0.7,1.5-1.6,1.6
		c-0.3,0-0.5,0-0.8,0c-17.1,0-34.2,0-51.3,0c-1.9,0-2.4-0.5-2.4-2.4c0-3,0-6,0-9c0-8.8,5.9-15.9,14.6-17.5c1.1-0.2,2.2-0.2,3.4-0.2
		c0.5,0,1,0,1.6,0c-0.3-0.3-0.5-0.5-0.6-0.7c-2-2.3-3-4.9-3.1-7.9c0-2.7,0-5.3,0-8c0-6.7,5.5-12.1,12.2-12.1
		c6.7,0,12.1,5.4,12.2,12.1c0,2.2,0,4.4,0,6.7C78.5,73,77.8,75.1,74.9,78.5z M63.8,104.2c0-0.2,0-0.2-0.1-0.3
		c-2.9-7.1-5.9-14.3-8.8-21.4C54.7,82,54.5,82,54,82c-5.8,0.6-10.8,5.2-12,10.9c-0.7,3.7-0.2,7.4-0.3,11.1c0,0,0.1,0.1,0.1,0.1
		C49.1,104.2,56.4,104.2,63.8,104.2z M91,104.2c0-3,0.1-6,0-9c-0.3-6.6-5.6-12.3-12.1-13.1c-0.7-0.1-0.9,0.1-1.2,0.7
		c-2.8,6.9-5.6,13.7-8.5,20.6c-0.1,0.3-0.2,0.6-0.3,0.9C76.3,104.2,83.7,104.2,91,104.2z M57.6,65.4c0,1.6,0,3.2,0,4.7
		c0.1,3.6,2.5,6.8,6.1,8c3.4,1.1,7.3-0.1,9.6-2.9c2.4-3,1.9-6.4,1.9-9.9c-3-0.1-5.8-0.7-8.4-2.1c-0.2-0.1-0.6-0.1-0.8,0
		C63.4,64.6,60.6,65.3,57.6,65.4z M68.1,81.9c0,1.4,0.1,2.6,0,3.9c0,0.5-0.3,1.2-0.7,1.4c-0.4,0.3-1.1,0.3-1.6,0.2
		c-0.7-0.2-1-0.8-1-1.6c0-1.3,0-2.6,0-3.9c-2.2,0-4.2,0-6.4,0c2.7,6.5,5.3,12.9,8,19.5c2.7-6.6,5.4-13.1,8.1-19.5
		C72.3,81.9,70.2,81.9,68.1,81.9z M75.2,62c-0.2-3.4-1.6-6-4.5-7.6c-3.1-1.7-6.3-1.6-9.2,0.4c-2.5,1.7-3.7,4.1-3.9,7.2
		c2.7,0,5.1-0.6,7.2-2c1.1-0.7,2.1-0.7,3.2,0C70.1,61.4,72.5,62,75.2,62z"/>
	<path class="st3" d="M38.7,34.2c1.1-1.1,2-2.1,3-3.1c0.8-0.8,1.7-0.8,2.4-0.1c0.8,0.7,0.8,1.7-0.1,2.5c-1,1-2,2-3.2,3.2
		c0.7,0.6,1.3,1.1,1.9,1.6c0.5,0.4,0.9,0.9,1.4,1.4c0.7,0.8,0.7,1.7,0.1,2.4c-0.7,0.7-1.7,0.7-2.5-0.1c-1-1-2-2-3.1-3.1
		c-1.1,1.1-2,2.1-3,3.1c-0.5,0.5-1.1,0.8-1.9,0.5c-1.2-0.4-1.5-1.8-0.6-2.8c1-1,2-2,3.2-3.1c-1.1-1.1-2.1-2-3-3
		c-0.4-0.4-0.7-1.1-0.6-1.6c0.1-0.5,0.6-1.1,1.1-1.3c0.5-0.1,1.2,0.1,1.7,0.4c0.9,0.7,1.7,1.6,2.5,2.4
		C38.2,33.7,38.4,33.9,38.7,34.2z"/>
	<path class="st3" d="M92.7,37.4c1.7-1.7,3.3-3.3,4.9-4.9c0.7-0.7,1.5-0.8,2.2-0.3c0.9,0.6,1.1,1.7,0.4,2.5
		c-2.1,2.1-4.2,4.2-6.3,6.3c-0.7,0.7-1.6,0.6-2.3-0.1c-1.2-1.2-2.4-2.4-3.6-3.6c-0.7-0.7-0.6-1.7,0-2.3c0.7-0.7,1.6-0.7,2.3,0
		C91.2,35.7,91.9,36.5,92.7,37.4z"/>
</g>
</svg>
