<?xml version="1.0" encoding="iso-8859-1"?>
<!-- Generator: Adobe Illustrator 19.0.0, SVG Export Plug-In . SVG Version: 6.00 Build 0)  -->
<svg version="1.1" id="Capa_1" xmlns="http://www.w3.org/2000/svg" xmlns:xlink="http://www.w3.org/1999/xlink" x="0px" y="0px"
	 viewBox="0 0 512 512" style="enable-background:new 0 0 512 512;" xml:space="preserve">
<path style="fill:#607D8B;" d="M410.51,249.173c-5.811-0.003-11.512-1.589-16.491-4.587l-36.843-22.101
	c-5.103-2.943-6.855-9.465-3.912-14.569s9.465-6.855,14.569-3.912c0.111,0.064,0.221,0.13,0.33,0.198l36.843,22.101
	c4.687,2.808,10.738,1.62,14.016-2.752l38.272-51.008c3.54-4.709,2.593-11.396-2.115-14.936c-0.294-0.221-0.599-0.427-0.914-0.616
	l-33.067-19.84c-5.103-2.943-6.855-9.465-3.913-14.569c2.943-5.103,9.465-6.855,14.569-3.913c0.111,0.064,0.222,0.13,0.331,0.199
	l33.045,19.84c15.152,9.096,20.062,28.754,10.966,43.906c-0.565,0.94-1.177,1.851-1.835,2.728l-38.251,51.008
	C430.085,244.434,420.591,249.189,410.51,249.173z"/>
<path style="fill:#CFD8DC;" d="M486.948,17.067C481.508,6.594,470.695,0.016,458.894,0H53.134
	C41.333,0.016,30.52,6.594,25.081,17.067c-5.567,10.527-4.827,23.275,1.92,33.088l163.136,238.464
	c1.23,1.772,1.886,3.88,1.877,6.037V480c0,17.673,14.327,32,32,32c5.792-0.021,11.469-1.614,16.427-4.608l64-38.4
	c9.62-5.783,15.523-16.168,15.573-27.392V294.656c0.005-2.175,0.675-4.296,1.92-6.08L485.006,50.091
	C491.734,40.297,492.482,27.581,486.948,17.067z"/>
<path style="fill:#90A4AE;" d="M224.014,256c-3.575,0.005-6.915-1.781-8.896-4.757l-128-192c-3.27-4.901-1.947-11.525,2.955-14.795
	c4.901-3.27,11.525-1.947,14.795,2.955l128,192c3.275,4.897,1.961,11.521-2.935,14.797C228.181,255.371,226.121,255.998,224.014,256
	z"/>
<g>
</g>
<g>
</g>
<g>
</g>
<g>
</g>
<g>
</g>
<g>
</g>
<g>
</g>
<g>
</g>
<g>
</g>
<g>
</g>
<g>
</g>
<g>
</g>
<g>
</g>
<g>
</g>
<g>
</g>
</svg>
