<?xml version="1.0" encoding="utf-8"?>
<!-- Generator: Adobe Illustrator 20.0.0, SVG Export Plug-In . SVG Version: 6.00 Build 0)  -->
<svg version="1.1" id="Layer_1" xmlns="http://www.w3.org/2000/svg" xmlns:xlink="http://www.w3.org/1999/xlink" x="0px" y="0px"
	 viewBox="0 0 130.4 130.4" style="enable-background:new 0 0 130.4 130.4;" xml:space="preserve">
<style type="text/css">
	.st0{fill:#F9B0A9;}
	.st1{fill:#FFFFFF;}
</style>
<circle class="st0" cx="65.2" cy="65.2" r="65.2"/>
<g>
	<path class="st1" d="M83.1,29.5c0.5,0.4,1,0.8,1.4,1.2c3.8,3.8,7.7,7.7,11.4,11.4c0.6,0.6,0.8,1.2,0.8,2.1c0,17.3,0,34.7,0,52
		c0,3.1-1.6,4.8-4.8,4.8c-16.7,0-33.4,0-50.1,0c-3.1,0-4.8-1.6-4.8-4.8c0-3.7,0-7.3,0-11c0-1.1,0.6-1.7,1.4-1.7s1.4,0.7,1.4,1.6
		c0,2.5,0,4.9,0,7.3c0,1.3,0,2.6,0,3.9c0,1.4,0.5,1.9,1.9,1.9c12.4,0,24.8,0,37.2,0c4.4,0,8.8,0,13.3,0c1.3,0,1.8-0.5,1.8-1.8
		c0-16.9,0-33.8,0-50.7c0-0.2,0-0.3,0-0.7c-0.3,0-0.5,0-0.7,0c-2.5,0-4.9,0-7.4,0c-2.8,0-4.5-1.7-4.5-4.5c0-2.5,0-4.9,0-7.3
		c0-0.2,0-0.5,0-0.8c-0.3,0-0.6,0-0.8,0c-12.9,0-25.8,0-38.7,0c-1.6,0-2,0.4-2,2c0,0.4,0,0.8,0,1.2c1.2-0.1,2.3-0.2,3.5-0.3
		c1.3-0.1,1.9,0.4,1.9,1.7c0,5.4,0,10.9,0,16.3c0,1.2-0.5,1.7-1.7,1.7c-5.4,0-10.9,0-16.3,0c-0.8,0-1.4-0.3-1.7-1c0-0.7,0-1.3,0-2
		c0.1-0.2,0.1-0.3,0.2-0.5C26.6,44.8,30,39.9,36,36.9c1-0.5,1.3-1,1.3-2.1c-0.1-1,0.1-2,0.4-2.9c0.5-1.4,1.7-2.1,3-2.5
		C54.7,29.5,69,29.5,83.1,29.5z M28.3,52.1c4.7,0,9.4,0,14,0c0-4.7,0-9.4,0-14.1C34.5,38.6,28.5,45.4,28.3,52.1z M91.9,42.2
		c-2.6-2.6-5.1-5.1-7.7-7.7c0,2.1,0,4.3,0,6.5c0,0.7,0.6,1.2,1.3,1.2C87.6,42.2,89.7,42.2,91.9,42.2z"/>
	<path class="st1" d="M47.4,57.1c0-0.3,0-0.6,0-0.8c0-4.8,0-9.6,0-14.3c0-1.5,0.5-1.9,1.9-1.9c8.6,0.2,16,6.5,17.5,14.9
		c2,10-4.6,19.7-14.5,21.7c-10,1.9-19.6-4.5-21.6-14.5c-0.2-1.1-0.2-2.1-0.3-3.3c-0.1-1.2,0.5-1.7,1.7-1.7c4.8,0,9.6,0,14.4,0
		C46.7,57.1,47,57.1,47.4,57.1z M60.7,48.6c-0.2,0.2-0.3,0.3-0.6,0.5c-3.4,3.4-6.7,6.7-10,10c-0.6,0.6-1.2,0.8-2.1,0.8
		c-4.7,0-9.4,0-14.1,0c-0.2,0-0.6,0-0.8,0c0.6,6.8,5.8,12.6,12.5,13.9s13.7-2,16.9-8C65.9,59.4,64.3,52.4,60.7,48.6z M50.3,43
		c0,4,0,8.1,0,11.9c2.8-2.8,5.6-5.6,8.4-8.4C56.3,44.5,53.4,43.3,50.3,43z"/>
	<path class="st1" d="M61.8,76.4c2.6,0.1,4.6,2.6,4,5.1c-0.1,0.4-0.1,0.7,0.2,1c1.6,1.5,3,3,4.5,4.5c0.2,0.3,0.5,0.3,0.9,0.2
		c0.8-0.3,1.7-0.3,2.6,0c0.4,0.2,0.7,0.1,0.9-0.2c2.4-2.4,4.9-4.9,7.2-7.2c0.2-0.2,0.3-0.5,0.2-0.9c-0.7-2.3,0.7-4.5,3-5.2
		c2.1-0.6,4.4,0.7,5,3s-0.7,4.5-3,5.1c-0.8,0.2-1.6,0-2.6-0.2c-0.4-0.1-0.6-0.1-0.9,0.2c-2.4,2.4-4.8,4.8-7.2,7.2
		c-0.2,0.2-0.3,0.5-0.2,0.9c0.6,1.7-0.1,3.6-1.6,4.7c-1.4,1-3.4,1-4.9,0c-1.5-1.1-2.1-3-1.6-4.6c0.2-0.4,0.1-0.7-0.2-1
		c-1.5-1.4-2.9-2.9-4.4-4.4c-0.3-0.3-0.6-0.3-1-0.2c-0.9,0.4-1.9,0.4-2.9,0.1c-0.4-0.2-0.7-0.1-0.9,0.2c-1.4,1.5-2.9,2.9-4.4,4.4
		c-0.2,0.2-0.3,0.5-0.2,0.8c0.7,1.9-0.1,4-1.7,4.9s-3.8,0.7-5.1-0.7c-1.4-1.4-1.6-3.5-0.6-5.1c1-1.6,3-2.4,4.9-1.7
		c0.3,0.1,0.6,0.1,0.8-0.2c1.5-1.5,2.9-3,4.4-4.4c0.3-0.3,0.3-0.5,0.2-0.9C56.9,79,59,76.3,61.8,76.4z M72.8,89.8
		c-0.7,0-1.4,0.6-1.4,1.3c0,0.7,0.6,1.4,1.3,1.4c0.7,0,1.4-0.7,1.4-1.4C74.2,90.5,73.5,89.8,72.8,89.8z M51,92.6
		c0.7,0,1.4-0.7,1.4-1.4c0-0.7-0.7-1.4-1.4-1.4s-1.4,0.7-1.4,1.4S50.3,92.6,51,92.6z M86.5,79.1c0.7,0,1.4-0.6,1.4-1.3
		s-0.6-1.4-1.3-1.4c-0.7,0-1.4,0.6-1.4,1.3C85.1,78.5,85.7,79.1,86.5,79.1z M63.1,80.6c0-0.7-0.6-1.4-1.3-1.4s-1.4,0.6-1.4,1.3
		c0,0.7,0.6,1.4,1.3,1.4C62.5,81.9,63.1,81.3,63.1,80.6z"/>
	<path class="st1" d="M80.7,51.7c-2.7,0-5.5,0-8.2,0c-0.9,0-1.5-0.4-1.6-1.2c-0.2-0.7,0.2-1.3,0.8-1.6c0.2-0.1,0.6-0.1,0.9-0.1
		c5.4,0,10.9,0,16.2,0c1,0,1.6,0.3,1.7,1c0.2,1-0.4,1.8-1.6,1.8c-2,0-3.9,0-5.8,0C82.3,51.7,81.5,51.7,80.7,51.7z"/>
	<path class="st1" d="M80.6,55.6c2.8,0,5.5,0,8.3,0c0.8,0,1.4,0.3,1.6,1c0.2,0.7-0.2,1.6-1,1.7c-0.2,0.1-0.5,0.1-0.7,0.1
		c-5.4,0-10.9,0-16.2,0c-0.7,0-1.2-0.1-1.6-0.7c-0.5-1,0.2-2,1.4-2.1c2.1,0,4.1,0,6.2,0C79.2,55.6,79.9,55.6,80.6,55.6z"/>
	<path class="st1" d="M75.9,62.3c1.2,0,2.3,0,3.4,0c1,0,1.6,0.6,1.6,1.4c0,0.8-0.7,1.4-1.6,1.4c-2.3,0-4.6,0-6.9,0
		c-1,0-1.6-0.6-1.6-1.4c0-0.8,0.7-1.4,1.6-1.4C73.6,62.3,74.7,62.3,75.9,62.3z"/>
	<path class="st1" d="M72.8,89.8c0.7,0,1.4,0.7,1.4,1.4c0,0.7-0.7,1.4-1.4,1.4c-0.7,0-1.3-0.7-1.3-1.4C71.4,90.4,72,89.8,72.8,89.8z
		"/>
	<path class="st1" d="M51,92.6c-0.7,0-1.4-0.7-1.4-1.4c0-0.7,0.7-1.4,1.4-1.4s1.4,0.7,1.4,1.4C52.4,91.9,51.8,92.6,51,92.6z"/>
	<path class="st1" d="M86.5,79.1c-0.7,0-1.4-0.7-1.4-1.4c0-0.7,0.7-1.3,1.4-1.3c0.7,0,1.4,0.7,1.3,1.4
		C87.8,78.5,87.2,79.1,86.5,79.1z"/>
	<path class="st1" d="M63.1,80.6c0,0.7-0.7,1.4-1.4,1.3c-0.7,0-1.4-0.7-1.3-1.4c0-0.7,0.7-1.3,1.4-1.3S63.1,79.9,63.1,80.6z"/>
</g>
</svg>
