<?xml version="1.0" encoding="utf-8"?>
<!-- Generator: Adobe Illustrator 20.0.0, SVG Export Plug-In . SVG Version: 6.00 Build 0)  -->
<svg version="1.1" id="Layer_1" xmlns="http://www.w3.org/2000/svg" xmlns:xlink="http://www.w3.org/1999/xlink" x="0px" y="0px"
	 viewBox="0 0 554.3 63.9" style="enable-background:new 0 0 554.3 63.9;" xml:space="preserve">
<style type="text/css">
	.st0{opacity:0.41;fill:none;stroke:#69E2DC;stroke-width:0.5669;}
</style>
<title>Asset 1</title>
<path class="st0" d="M28.6,56.2c0.6,0.6,0.9,1.3,0.9,2.2c0,1.3-0.8,2.5-2,3c-2.1,1-4.5,1.5-6.9,1.5c-8.1,0-12.1-3.7-12.1-11V26.7
	H4.4c-0.9,0.1-1.8-0.3-2.4-0.9c-0.6-0.7-0.9-1.5-0.9-2.4c0-0.9,0.3-1.7,0.9-2.4c0.7-0.6,1.5-0.9,2.4-0.9h4.1v-5.9
	c-0.1-1.1,0.3-2.1,1-2.9c0.8-0.7,1.8-1.1,2.9-1c1-0.1,2.1,0.3,2.8,1c0.7,0.8,1.1,1.8,1,2.9V20h9.3c1.8,0,3.3,1.4,3.3,3.2
	c0,0,0,0.1,0,0.1c0,0.9-0.4,1.7-1,2.3c-0.6,0.7-1.5,1-2.4,1h-9.2v24.5c0,1.9,0.4,3.2,1.3,3.9c1.2,0.8,2.6,1.1,4,1
	c1.1,0,2.2-0.2,3.3-0.5c0.1,0,0.2,0,0.2-0.1c0.5-0.1,0.9-0.2,1.4-0.2C27.3,55.3,28,55.6,28.6,56.2z"/>
<path class="st0" d="M40.1,57c-3.8-3.9-5.7-9.3-5.7-16.2c0-3.7,0.7-7.4,2.1-10.8c1.4-3.3,3.7-6.2,6.8-8.2c3.3-2.1,7.1-3.1,10.9-3
	c3.8-0.1,7.5,0.9,10.7,2.8c2.9,1.9,5.2,4.5,6.7,7.6c1.6,3.3,2.4,6.9,2.4,10.5c0,2.1-1.6,3.8-3.7,3.8c-0.1,0-0.1,0-0.2,0h-28
	c0.5,3.9,2,6.9,4.4,9c2.5,2.1,5.8,3.1,10,3.1c2,0,4-0.2,5.9-0.6c1.8-0.4,3.6-1.1,5.2-1.9c0.5-0.2,1-0.4,1.5-0.3c0.9,0,1.7,0.4,2.4,1
	c0.7,0.6,1,1.5,1,2.4c-0.1,1.4-0.9,2.6-2.2,3.1c-2.1,1.2-4.3,2.1-6.6,2.8c-2.6,0.6-5.2,0.9-7.8,0.9C49.2,62.8,43.9,60.9,40.1,57z
	 M66.4,36.2c-0.2-2-0.8-3.9-2-5.5c-1.1-1.7-2.7-3.1-4.5-4c-1.7-0.9-3.6-1.3-5.6-1.3c-1.9,0-3.8,0.5-5.5,1.2
	c-1.9,0.9-3.5,2.4-4.6,4.2c-1.2,2-1.8,4.2-1.9,6.5h23.2c0.5,0.1,0.9-0.3,1-0.7C66.4,36.4,66.4,36.3,66.4,36.2z"/>
<path class="st0" d="M88,61.3c-2.1-0.9-3.8-2.5-5-4.4c-1.2-2-1.9-4.3-1.8-6.6c-0.2-4,1.7-7.8,5-10c3.3-2.3,8-3.5,14.1-3.5h9.9v-0.6
	c0-3.5-0.9-6.1-2.6-7.7s-4.5-2.4-8.4-2.4c-1.8,0-3.6,0.1-5.4,0.5c-1.9,0.4-3.8,0.9-5.6,1.5l-1.1,0.2c-0.8,0-1.6-0.4-2.2-1
	c-0.6-0.6-1-1.4-1-2.3c-0.1-1.5,0.9-2.8,2.2-3.2c4.5-2,9.4-3,14.3-3c3.4-0.1,6.8,0.7,9.8,2.3c2.4,1.4,4.4,3.4,5.7,5.9
	c1.3,2.5,1.9,5.3,1.9,8.1v23.4c0,1-0.4,2-1.2,2.7c-0.7,0.7-1.7,1.1-2.7,1.1c-2.1,0-3.8-1.7-3.8-3.8v-2c-4,4.1-9.2,6.2-15.5,6.2
	C92.4,62.8,90.1,62.3,88,61.3z M104.4,54.3c2.2-1.1,4.1-2.6,5.8-4.4v-6.8h-8.9c-8.3,0-12.4,2.2-12.4,6.5c0,4.3,2.9,6.5,8.6,6.5
	C99.9,56,102.2,55.4,104.4,54.3L104.4,54.3z"/>
<path class="st0" d="M192.2,27c1,2.5,1.5,5.1,1.5,7.8v23.8c0,1-0.4,2-1.2,2.7c-0.7,0.7-1.7,1.1-2.7,1.1c-2.1,0-3.8-1.7-3.8-3.8V36.3
	c0-3.7-0.6-6.3-1.9-7.9c-1.3-1.6-3.4-2.4-6.4-2.4c-2.4-0.1-4.7,0.6-6.7,2c-2.1,1.6-3.8,3.6-5.1,5.8v24.8c0,1-0.4,2-1.2,2.7
	c-0.7,0.7-1.7,1.1-2.7,1.1c-2.1,0-3.8-1.7-3.8-3.8V36.3c0-3.7-0.6-6.3-1.9-7.9c-1.3-1.6-3.4-2.4-6.4-2.4c-2.4-0.1-4.7,0.6-6.7,2
	c-2,1.6-3.8,3.6-5.1,5.8v24.8c0,1-0.4,2-1.2,2.7c-0.7,0.7-1.7,1.1-2.7,1.1c-2.1,0-3.8-1.7-3.8-3.8V23.1c0-1,0.4-2,1.1-2.7
	c0.7-0.8,1.7-1.2,2.7-1.2c2.1,0.1,3.8,1.8,3.9,3.9v3.1c1.6-2.2,3.6-4,5.9-5.4c2.5-1.4,5.3-2,8.1-1.9c2.8-0.1,5.5,0.8,7.8,2.4
	c2.2,1.5,3.9,3.6,4.8,6.1c3.4-5.6,8.5-8.4,15.2-8.4c2.8-0.1,5.6,0.7,7.9,2.3C189.7,22.7,191.2,24.7,192.2,27z"/>
<path class="st0" d="M292.9,27c1,2.5,1.5,5.1,1.5,7.8v23.8c0,1-0.4,2-1.2,2.7c-0.7,0.7-1.7,1.1-2.7,1.1c-2.1,0-3.8-1.7-3.8-3.8V36.3
	c0-3.7-0.6-6.3-1.9-7.9c-1.3-1.6-3.4-2.4-6.4-2.4c-2.4-0.1-4.7,0.6-6.7,2c-2.1,1.6-3.8,3.6-5.1,5.8v24.8c0,1-0.4,2-1.2,2.7
	c-0.7,0.7-1.7,1.1-2.7,1.1c-2.1,0-3.8-1.7-3.8-3.8V36.3c0-3.7-0.6-6.3-1.9-7.9c-1.3-1.6-3.4-2.4-6.4-2.4c-2.4-0.1-4.7,0.6-6.7,2
	c-2.1,1.6-3.8,3.6-5.1,5.8v24.8c0,1-0.4,2-1.2,2.7c-0.7,0.7-1.7,1.1-2.7,1.1c-2.1,0-3.8-1.7-3.8-3.8V23.1c0-1,0.4-2,1.1-2.7
	c0.7-0.8,1.7-1.2,2.7-1.2c2.1,0.1,3.8,1.8,3.9,3.9v3.1c1.6-2.2,3.6-4,5.9-5.4c2.5-1.4,5.3-2,8.1-1.9c2.8-0.1,5.5,0.8,7.8,2.4
	c2.2,1.5,3.9,3.6,4.8,6.1c3.4-5.6,8.5-8.4,15.2-8.4c2.8-0.1,5.6,0.7,7.9,2.3C290.4,22.7,291.9,24.7,292.9,27z"/>
<path class="st0" d="M310,57c-3.8-3.9-5.7-9.3-5.7-16.2c0-3.7,0.7-7.4,2.1-10.8c1.4-3.3,3.7-6.2,6.8-8.2c3.3-2.1,7.1-3.1,10.9-3
	c3.8-0.1,7.4,0.9,10.7,2.8c2.9,1.9,5.2,4.5,6.7,7.6c1.6,3.3,2.4,6.9,2.4,10.5c0,2.1-1.6,3.8-3.7,3.8c-0.1,0-0.1,0-0.2,0h-28
	c0.5,3.9,2,6.9,4.4,9c2.5,2.1,5.8,3.1,10,3.1c2,0,4-0.2,5.9-0.6c1.8-0.4,3.6-1.1,5.2-1.9c0.5-0.2,1-0.4,1.5-0.3c0.9,0,1.7,0.4,2.4,1
	c0.7,0.6,1,1.5,1,2.4c-0.1,1.4-0.9,2.6-2.2,3.1c-2.1,1.2-4.3,2.1-6.6,2.8c-2.6,0.6-5.2,0.9-7.9,0.9C319.1,62.8,313.8,60.9,310,57z
	 M336.2,36.2c-0.2-2-0.8-3.9-2-5.5c-1.1-1.7-2.7-3.1-4.5-4c-1.7-0.9-3.6-1.3-5.6-1.3c-1.9,0-3.8,0.5-5.5,1.2
	c-1.9,0.9-3.5,2.4-4.6,4.2c-1.2,2-1.8,4.2-1.9,6.5h23.1c0.5,0.1,0.9-0.2,1-0.7C336.3,36.4,336.3,36.3,336.2,36.2L336.2,36.2z"/>
<path class="st0" d="M415.6,27c1,2.5,1.5,5.1,1.5,7.8v23.8c0,1-0.4,2-1.1,2.7c-0.7,0.7-1.7,1.1-2.7,1.1c-2.1,0-3.8-1.7-3.8-3.8V36.3
	c0-3.7-0.6-6.3-1.9-7.9c-1.3-1.6-3.4-2.4-6.5-2.4c-2.4-0.1-4.7,0.6-6.7,2c-2.1,1.6-3.8,3.6-5.1,5.8v24.8c0,1-0.4,2-1.2,2.7
	c-0.7,0.7-1.7,1.1-2.7,1.1c-2.1,0-3.8-1.7-3.8-3.8V36.3c0-3.7-0.6-6.3-1.9-7.9c-1.3-1.6-3.4-2.4-6.4-2.4c-2.4-0.1-4.7,0.6-6.7,2
	c-2.1,1.6-3.8,3.6-5.1,5.8v24.8c0,1-0.4,2-1.2,2.7c-0.7,0.7-1.7,1.1-2.7,1.1c-2.1,0-3.8-1.7-3.8-3.8V23.1c0-1,0.4-2,1.1-2.7
	c0.7-0.8,1.7-1.2,2.7-1.2c2.1,0.1,3.8,1.8,3.9,3.9v3.1c1.6-2.2,3.6-4,5.9-5.4c2.5-1.4,5.3-2,8.1-1.9c2.8-0.1,5.5,0.8,7.8,2.4
	c2.2,1.5,3.9,3.6,4.8,6.1c3.4-5.6,8.5-8.4,15.2-8.4c2.8-0.1,5.6,0.7,7.9,2.3C413.1,22.7,414.6,24.7,415.6,27z"/>
<path class="st0" d="M437.3,56.6v2c0,1-0.4,2-1.2,2.7c-0.7,0.7-1.7,1.1-2.7,1.1c-2.1,0-3.8-1.7-3.8-3.8V5c0-1,0.4-2,1.1-2.7
	c0.7-0.8,1.7-1.2,2.7-1.2c2.1,0,3.8,1.6,3.9,3.7c0,0.1,0,0.1,0,0.2v20c7.3-7.9,19.6-8.3,27.5-0.9c1.6,1.5,2.9,3.2,3.9,5.1
	c1.9,3.6,2.8,7.6,2.8,11.7c0.1,4.1-0.9,8.1-2.8,11.7c-1.7,3.2-4.3,5.8-7.4,7.7c-3,1.8-6.4,2.7-9.9,2.7
	C446,62.8,440.9,60.6,437.3,56.6z M460.2,51.7c2.4-2.6,3.6-6.2,3.6-10.9s-1.2-8.2-3.6-10.8c-2.4-2.7-5.7-4-9.9-4
	c-2.4,0-4.8,0.6-7,1.6c-2.3,1.1-4.3,2.6-6,4.5v17.4c1.7,1.8,3.7,3.3,6,4.5c2.2,1.1,4.6,1.7,7,1.7C454.5,55.6,457.8,54.3,460.2,51.7
	L460.2,51.7z"/>
<path class="st0" d="M484.9,57c-3.8-3.9-5.7-9.3-5.7-16.2c0-3.7,0.7-7.4,2.1-10.8c1.4-3.3,3.7-6.2,6.8-8.2c3.3-2.1,7.1-3.1,10.9-3
	c3.7-0.1,7.4,0.9,10.7,2.8c2.9,1.9,5.2,4.5,6.7,7.6c1.6,3.3,2.4,6.9,2.4,10.5c0,2.1-1.6,3.8-3.7,3.8c-0.1,0-0.1,0-0.2,0H487
	c0.5,3.9,2,6.9,4.4,9c2.5,2.1,5.8,3.1,10,3.1c2,0,4-0.2,5.9-0.6c1.8-0.4,3.6-1.1,5.2-1.9c0.5-0.2,1-0.4,1.5-0.3c0.9,0,1.7,0.4,2.4,1
	c0.7,0.6,1,1.5,1,2.4c-0.1,1.4-0.9,2.6-2.2,3.1c-2.1,1.2-4.3,2.1-6.7,2.8c-2.6,0.6-5.2,0.9-7.9,0.9C493.9,62.8,488.6,60.9,484.9,57z
	 M511.1,36.2c-0.2-2-0.8-3.9-2-5.5c-1.1-1.7-2.7-3.1-4.5-4c-1.7-0.8-3.7-1.3-5.6-1.2c-1.9,0-3.8,0.5-5.5,1.2
	c-1.9,0.9-3.5,2.4-4.6,4.2c-1.1,2-1.8,4.2-1.9,6.5h23.1c0.5,0.1,0.9-0.3,1-0.8C511.1,36.4,511.1,36.3,511.1,36.2L511.1,36.2z"/>
<path class="st0" d="M529.7,61.3c-0.7-0.7-1.1-1.7-1.1-2.7V23.1c0-1,0.4-2,1.1-2.7c0.7-0.8,1.7-1.2,2.7-1.2c2.1,0.1,3.8,1.8,3.9,3.9
	v3.3c3.8-5.1,8.1-7.6,12.9-7.6h0.4c1,0,2,0.4,2.6,1.2c0.7,0.7,1.1,1.7,1.1,2.7c0,1-0.4,1.9-1.1,2.6c-0.8,0.7-1.8,1-2.8,1H549
	c-2.5,0-5,0.6-7.2,1.9c-2.3,1.3-4.2,3.1-5.6,5.3v25.1c0,1-0.4,2-1.2,2.7c-0.7,0.7-1.7,1.1-2.7,1.1C531.4,62.4,530.4,62,529.7,61.3z"
	/>
</svg>
